 <svg
                                        width="157"
                                        height="27"
                                        viewBox="0 0 97 17"
                                        fill="none"
                                        xmlns="http://www.w3.org/2000/svg"
                                    >
                                        <path
                                            d="M14 7.32324L9.85414 6.7209L8 2.96387L6.14586 6.72078L2 7.32324L5 10.2475L4.29184 14.3766L8 12.4271L11.7082 14.3766L11 10.2475L14 7.32324Z"
                                            fill="#FFE810"
                                        />
                                        <path
                                            d="M30 7.32324L25.8541 6.7209L24 2.96387L22.1459 6.72078L18 7.32324L21 10.2475L20.2918 14.3766L24 12.4271L27.7082 14.3766L27 10.2475L30 7.32324Z"
                                            fill="#FFE810"
                                        />
                                        <path
                                            d="M46 7.32324L41.8541 6.7209L40 2.96387L38.1459 6.72078L34 7.32324L37 10.2475L36.2918 14.3766L40 12.4271L43.7082 14.3766L43 10.2475L46 7.32324Z"
                                            fill="#FFE810"
                                        />
                                        <path
                                            d="M62 7.32324L57.8541 6.7209L56 2.96387L54.1459 6.72078L50 7.32324L53 10.2475L52.2918 14.3766L56 12.4271L59.7082 14.3766L59 10.2475L62 7.32324Z"
                                            fill="#FFE810"
                                        />
                                        <path
                                            d="M78 7.32324L73.8541 6.7209L72 2.96387L70.1459 6.72078L66 7.32324L69 10.2475L68.2918 14.3766L72 12.4271L75.7082 14.3766L75 10.2475L78 7.32324Z"
                                            fill="#FFE810"
                                        />
                                        <path
                                            fill-rule="evenodd"
                                            clip-rule="evenodd"
                                            d="M72 12.4271L75.7082 14.3766L75 10.2475L78 7.32324L73.8541 6.7209L72 2.96387V12.4271Z"
                                            fill="#CCCCCC"
                                        />
                                        <path
                                            d="M90.156 12.6704H84.576V11.8664L87.456 8.85441C88.596 7.65441 88.992 7.10241 88.992 6.46641C88.992 5.56641 88.356 4.99041 87.312 4.99041C86.34 4.99041 85.632 5.57841 85.536 6.51441H84.588C84.744 5.03841 85.788 4.11441 87.3 4.11441C88.884 4.11441 89.94 5.03841 89.94 6.40641C89.94 7.42641 89.304 8.17041 88.044 9.47841L85.98 11.6264V11.7584H90.156V12.6704ZM92.7097 12.6704H91.6897L95.1577 5.31441V5.18241H90.9217V4.27041H96.2617V5.14641L92.7097 12.6704Z"
                                            fill="#444444"
                                        />
                                    </svg>